<svg id="Layer_1" data-name="Layer 1" xmlns="http://www.w3.org/2000/svg" viewBox="0 0 94.72 30.46"><defs><style>.cls-1{fill:#fff;}.cls-2{stroke:#000;stroke-miterlimit:10;}</style></defs><title>Chestnut_v2_icons</title><rect class="cls-1" x="-95.31" y="-341.11" width="1918" height="1080"/><path class="cls-2" d="M16.35,30a1.19,1.19,0,0,1-.81-.32L.88,16.11a1.19,1.19,0,0,1,0-1.76L15.54.82a1.19,1.19,0,1,1,1.62,1.76L3.46,15.23,17.16,27.89A1.19,1.19,0,0,1,16.35,30Z"/><path d="M46.16,21.76v-12h5.91a3.5,3.5,0,0,1,2.52.87,2.9,2.9,0,0,1,.91,2.19,2.79,2.79,0,0,1-.6,1.82,2.55,2.55,0,0,1-1.49.93,2.55,2.55,0,0,1,1.65,1,3,3,0,0,1,.67,1.94,3.16,3.16,0,0,1-.92,2.36,3.5,3.5,0,0,1-2.57.91Zm2.11-7.06h3.38a1.71,1.71,0,0,0,1.23-.43,1.61,1.61,0,0,0,0-2.23,1.7,1.7,0,0,0-1.23-.43H48.27Zm0,5.2h3.47a1.9,1.9,0,0,0,1.34-.44,1.58,1.58,0,0,0,.48-1.23,1.62,1.62,0,0,0-.48-1.2,1.81,1.81,0,0,0-1.34-.48H48.27Z"/><path d="M57.5,21.76l4.72-12h2.63l4.71,12H67.17l-.88-2.32H60.78l-.89,2.32Zm3.87-4.17h4.32l-2.16-5.72Z"/><path d="M71.23,15.76a6.49,6.49,0,0,1,.49-2.53,5.71,5.71,0,0,1,1.33-2,6.06,6.06,0,0,1,2-1.26,6.78,6.78,0,0,1,2.48-.45,5.37,5.37,0,0,1,2.88.74,5.78,5.78,0,0,1,1.92,1.94l-1.78.94a3.51,3.51,0,0,0-1.27-1.27,3.36,3.36,0,0,0-1.76-.49,3.94,3.94,0,0,0-3,1.23,4.34,4.34,0,0,0-1.18,3.13,4.35,4.35,0,0,0,1.18,3.12,3.91,3.91,0,0,0,3,1.24,3.35,3.35,0,0,0,1.75-.49,3.56,3.56,0,0,0,1.27-1.26l1.8.9A5.43,5.43,0,0,1,77.53,22a6.7,6.7,0,0,1-2.48-.46,6.13,6.13,0,0,1-2-1.26,5.73,5.73,0,0,1-1.33-2A6.47,6.47,0,0,1,71.23,15.76Z"/><path d="M84.92,21.76v-12H87v5.7l4.7-5.7h2.61L89.47,15.4l5.26,6.35H92.11l-4-5.08L87,17.92v3.83Z"/></svg>